<svg width="20" height="20" viewBox="0 0 20 20" fill="none" xmlns="http://www.w3.org/2000/svg">
<path d="M19.9492 5.88008C19.9023 4.81737 19.7304 4.08683 19.4842 3.45373C19.2302 2.78177 18.8394 2.18016 18.3275 1.68002C17.8272 1.17211 17.2215 0.77742 16.5572 0.527449C15.9204 0.281306 15.1934 0.109397 14.1306 0.0625906C13.0597 0.0117211 12.7198 0 10.0039 0C7.28799 0 6.94805 0.0117211 5.88119 0.0586054C4.81832 0.10549 4.0876 0.277477 3.45458 0.523464C2.78229 0.77742 2.18057 1.16812 1.68034 1.68002C1.17233 2.18012 0.777763 2.78571 0.527549 3.44991C0.281359 4.08683 0.109457 4.81346 0.0626025 5.87609C0.0117624 6.94674 0 7.28661 0 10.002C0 12.7174 0.0117624 13.0573 0.0586165 14.1239C0.10551 15.1866 0.27753 15.9172 0.523758 16.5502C0.777763 17.2222 1.17233 17.8238 1.68034 18.324C2.18057 18.8319 2.78628 19.2266 3.4506 19.4765C4.08757 19.7227 4.81433 19.8946 5.8774 19.9414C6.94407 19.9884 7.2842 20 10.0001 20C12.716 20 13.0559 19.9884 14.1228 19.9414C15.1857 19.8945 15.9164 19.7227 16.5494 19.4765C17.2143 19.2195 17.8181 18.8265 18.3221 18.3225C18.8262 17.8186 19.2193 17.215 19.4764 16.5502C19.7225 15.9134 19.8945 15.1866 19.9414 14.1239C19.9883 13.0573 20 12.7174 20 10.002C20 7.28661 19.996 6.9467 19.9492 5.88008ZM18.1478 14.0458C18.1047 15.0225 17.9406 15.55 17.8039 15.9016C17.4677 16.7729 16.7761 17.4644 15.9046 17.8005C15.5529 17.9372 15.0216 18.1013 14.0484 18.1442C12.9933 18.1912 12.6769 18.2028 10.0079 18.2028C7.33883 18.2028 7.01843 18.1912 5.96712 18.1442C4.99018 18.1013 4.46263 17.9372 4.11093 17.8005C3.67729 17.6402 3.28256 17.3863 2.96213 17.0542C2.62997 16.7299 2.37596 16.3392 2.21567 15.9056C2.07889 15.554 1.91481 15.0225 1.87194 14.0498C1.82489 12.9949 1.81332 12.6783 1.81332 10.0098C1.81332 7.34123 1.82489 7.02089 1.87194 5.96998C1.91481 4.99322 2.07889 4.46577 2.21567 4.11414C2.37596 3.68038 2.62997 3.28581 2.96611 2.96536C3.2903 2.63326 3.68108 2.3793 4.11492 2.21923C4.46662 2.08249 4.99815 1.91839 5.97111 1.87537C7.02621 1.82849 7.34282 1.81677 10.0117 1.81677C12.6847 1.81677 13.0011 1.82849 14.0524 1.87537C15.0294 1.91843 15.5569 2.08245 15.9086 2.21919C16.3422 2.3793 16.737 2.63326 17.0574 2.96536C17.3896 3.28968 17.6436 3.68038 17.8039 4.11414C17.9406 4.46577 18.1047 4.99701 18.1478 5.96998C18.1947 7.02488 18.2064 7.34123 18.2064 10.0098C18.2064 12.6783 18.1947 12.9909 18.1478 14.0458Z" fill="white"/>
<path d="M10.0037 4.86397C7.16675 4.86397 4.86499 7.16513 4.86499 10.0017C4.86499 12.8383 7.16675 15.1395 10.0037 15.1395C12.8407 15.1395 15.1424 12.8383 15.1424 10.0017C15.1424 7.16513 12.8407 4.86397 10.0037 4.86397ZM10.0037 13.3344C8.16323 13.3344 6.6703 11.842 6.6703 10.0017C6.6703 8.16143 8.16323 6.66902 10.0037 6.66902C11.8443 6.66902 13.337 8.16143 13.337 10.0017C13.337 11.842 11.8443 13.3344 10.0037 13.3344ZM16.5454 4.66081C16.5454 5.3232 16.0082 5.86026 15.3455 5.86026C14.6831 5.86026 14.1459 5.3232 14.1459 4.66081C14.1459 3.99833 14.6831 3.46143 15.3456 3.46143C16.0082 3.46143 16.5454 3.99829 16.5454 4.66081Z" fill="white"/>
</svg>
