<svg width="30" height="30" viewBox="0 0 30 30" fill="none" xmlns="http://www.w3.org/2000/svg">
<path fill-rule="evenodd" clip-rule="evenodd" d="M5.948 0.124825C3.00321 0.749192 0.730824 3.03886 0.130355 5.98666C-0.007521 6.66368 -0.0106916 6.90453 0.00840114 15.2268L0.0280577 23.7717L0.182138 24.3136C0.524891 25.5183 0.971703 26.4011 1.68581 27.2843C2.66447 28.4947 3.99547 29.3384 5.68556 29.8196L6.22713 29.9737L14.7483 29.9934C22.1478 30.0105 23.3449 29.9989 23.8433 29.9054C26.6234 29.3843 28.8313 27.4347 29.6721 24.7585C30.0151 23.667 30.0148 23.6772 29.9911 14.679C29.9689 6.2242 29.9689 6.22047 29.8148 5.67885C29.0093 2.84686 27.138 0.962553 24.3575 0.183752L23.7699 0.0191669L15.1746 0.00506962C6.96963 -0.00846372 6.55072 -0.00296597 5.948 0.124825ZM21.6047 9.11399C22.3274 9.4161 22.6969 10.3208 22.3956 11.0507C22.305 11.2706 14.794 20.3577 14.4614 20.65C14.0516 21.0102 13.3088 21.0915 12.828 20.8289C12.6683 20.7417 11.4738 19.7029 10.1735 18.5205C8.47394 16.975 7.77019 16.2901 7.66993 16.0841C7.35494 15.4367 7.5682 14.6016 8.1538 14.1889C8.53375 13.9211 9.20101 13.8557 9.60337 14.0468C9.74604 14.1145 10.6439 14.8802 11.5986 15.7483C13.2464 17.2466 13.3405 17.3203 13.4527 17.2011C13.5177 17.1321 14.9967 15.3627 16.7395 13.2693C18.4822 11.1759 19.9685 9.41152 20.0424 9.3485C20.4506 9.00051 21.1001 8.90303 21.6047 9.11399Z" fill="#9E1113"/>
</svg>
