<svg aria-hidden="true" xmlns="http://www.w3.org/2000/svg" xmlns:xlink="http://www.w3.org/1999/xlink"><symbol viewBox="0 0 89 16" fill="none" id="icon-arrow-next" xmlns="http://www.w3.org/2000/svg">
<path d="M88.7071 8.70711C89.0976 8.31658 89.0976 7.68342 88.7071 7.29289L82.3431 0.928932C81.9526 0.538408 81.3195 0.538408 80.9289 0.928932C80.5384 1.31946 80.5384 1.95262 80.9289 2.34315L86.5858 8L80.9289 13.6569C80.5384 14.0474 80.5384 14.6805 80.9289 15.0711C81.3195 15.4616 81.9526 15.4616 82.3431 15.0711L88.7071 8.70711ZM0 8V9H88V8V7H0V8Z" fill="currentColor"/>
</symbol><symbol viewBox="0 0 89 16" fill="none" id="icon-arrow-prev" xmlns="http://www.w3.org/2000/svg">
<path d="M0.292893 7.29289C-0.0976311 7.68342 -0.0976311 8.31658 0.292893 8.70711L6.65685 15.0711C7.04738 15.4616 7.68054 15.4616 8.07107 15.0711C8.46159 14.6805 8.46159 14.0474 8.07107 13.6569L2.41421 8L8.07107 2.34315C8.46159 1.95262 8.46159 1.31946 8.07107 0.928932C7.68054 0.538408 7.04738 0.538408 6.65685 0.928932L0.292893 7.29289ZM89 8V7L1 7V8V9L89 9V8Z" fill="currentColor"/>
</symbol><symbol viewBox="0 0 24 24" fill="none" id="icon-close" xmlns="http://www.w3.org/2000/svg">
<path d="M19.9999 19.9999L12 12M12 12L4 4M12 12L20 4M12 12L4 20" stroke="currentColor" stroke-width="2" stroke-linecap="round" stroke-linejoin="round"/>
</symbol><symbol viewBox="0 0 20 20" fill="none" id="icon-inst" xmlns="http://www.w3.org/2000/svg">
<path d="M19.9492 5.88008C19.9023 4.81737 19.7304 4.08683 19.4842 3.45373C19.2302 2.78177 18.8394 2.18016 18.3275 1.68002C17.8272 1.17211 17.2215 0.77742 16.5572 0.527449C15.9204 0.281306 15.1934 0.109397 14.1306 0.0625906C13.0597 0.0117211 12.7198 0 10.0039 0C7.28799 0 6.94805 0.0117211 5.88119 0.0586054C4.81832 0.10549 4.0876 0.277477 3.45458 0.523464C2.78229 0.77742 2.18057 1.16812 1.68034 1.68002C1.17233 2.18012 0.777763 2.78571 0.527549 3.44991C0.281359 4.08683 0.109457 4.81346 0.0626025 5.87609C0.0117624 6.94674 0 7.28661 0 10.002C0 12.7174 0.0117624 13.0573 0.0586165 14.1239C0.10551 15.1866 0.27753 15.9172 0.523758 16.5502C0.777763 17.2222 1.17233 17.8238 1.68034 18.324C2.18057 18.8319 2.78628 19.2266 3.4506 19.4765C4.08757 19.7227 4.81433 19.8946 5.8774 19.9414C6.94407 19.9884 7.2842 20 10.0001 20C12.716 20 13.0559 19.9884 14.1228 19.9414C15.1857 19.8945 15.9164 19.7227 16.5494 19.4765C17.2143 19.2195 17.8181 18.8265 18.3221 18.3225C18.8262 17.8186 19.2193 17.215 19.4764 16.5502C19.7225 15.9134 19.8945 15.1866 19.9414 14.1239C19.9883 13.0573 20 12.7174 20 10.002C20 7.28661 19.996 6.9467 19.9492 5.88008ZM18.1478 14.0458C18.1047 15.0225 17.9406 15.55 17.8039 15.9016C17.4677 16.7729 16.7761 17.4644 15.9046 17.8005C15.5529 17.9372 15.0216 18.1013 14.0484 18.1442C12.9933 18.1912 12.6769 18.2028 10.0079 18.2028C7.33883 18.2028 7.01843 18.1912 5.96712 18.1442C4.99018 18.1013 4.46263 17.9372 4.11093 17.8005C3.67729 17.6402 3.28256 17.3863 2.96213 17.0542C2.62997 16.7299 2.37596 16.3392 2.21567 15.9056C2.07889 15.554 1.91481 15.0225 1.87194 14.0498C1.82489 12.9949 1.81332 12.6783 1.81332 10.0098C1.81332 7.34123 1.82489 7.02089 1.87194 5.96998C1.91481 4.99322 2.07889 4.46577 2.21567 4.11414C2.37596 3.68038 2.62997 3.28581 2.96611 2.96536C3.2903 2.63326 3.68108 2.3793 4.11492 2.21923C4.46662 2.08249 4.99815 1.91839 5.97111 1.87537C7.02621 1.82849 7.34282 1.81677 10.0117 1.81677C12.6847 1.81677 13.0011 1.82849 14.0524 1.87537C15.0294 1.91843 15.5569 2.08245 15.9086 2.21919C16.3422 2.3793 16.737 2.63326 17.0574 2.96536C17.3896 3.28968 17.6436 3.68038 17.8039 4.11414C17.9406 4.46577 18.1047 4.99701 18.1478 5.96998C18.1947 7.02488 18.2064 7.34123 18.2064 10.0098C18.2064 12.6783 18.1947 12.9909 18.1478 14.0458Z" fill="currentColor"/>
<path d="M10.0037 4.86397C7.16675 4.86397 4.86499 7.16513 4.86499 10.0017C4.86499 12.8383 7.16675 15.1395 10.0037 15.1395C12.8407 15.1395 15.1424 12.8383 15.1424 10.0017C15.1424 7.16513 12.8407 4.86397 10.0037 4.86397ZM10.0037 13.3344C8.16323 13.3344 6.6703 11.842 6.6703 10.0017C6.6703 8.16143 8.16323 6.66902 10.0037 6.66902C11.8443 6.66902 13.337 8.16143 13.337 10.0017C13.337 11.842 11.8443 13.3344 10.0037 13.3344ZM16.5454 4.66081C16.5454 5.3232 16.0082 5.86026 15.3455 5.86026C14.6831 5.86026 14.1459 5.3232 14.1459 4.66081C14.1459 3.99833 14.6831 3.46143 15.3456 3.46143C16.0082 3.46143 16.5454 3.99829 16.5454 4.66081Z" fill="currentColor"/>
</symbol><symbol viewBox="0 0 14 28" fill="none" id="icon-next" xmlns="http://www.w3.org/2000/svg">
<path d="M1 1L13 14L1 27" stroke="currentColor" stroke-width="1.2"/>
</symbol><symbol viewBox="0 0 36 36" fill="none" id="icon-plus" xmlns="http://www.w3.org/2000/svg">
<path d="M1 18.2642L34.936 17.6718M17.697 1.48479L18.2389 34.4512" stroke="currentColor" stroke-width="1.5" stroke-linecap="round" stroke-linejoin="round"/>
</symbol><symbol viewBox="0 0 14 28" fill="none" id="icon-prev" xmlns="http://www.w3.org/2000/svg">
<path d="M13 27L1 14L13 1" stroke="currentColor" stroke-width="1.2"/>
</symbol><symbol viewBox="0 0 20 20" fill="none" id="icon-wh" xmlns="http://www.w3.org/2000/svg">
<path fill-rule="evenodd" clip-rule="evenodd" d="M17.0861 2.9065C15.206 1.03322 12.7056 0.00109375 10.0418 0C4.55291 0 0.0857228 4.44569 0.0835247 9.90978C0.0827711 11.6565 0.541247 13.3616 1.41273 14.8645L0 20L5.27905 18.6218C6.73363 19.4115 8.37125 19.8276 10.0378 19.8281H10.042C15.5303 19.8281 19.9979 15.3821 20 9.91772C20.0011 7.26953 18.9663 4.77969 17.0861 2.9065ZM10.0418 18.1544H10.0384C8.55325 18.1538 7.09668 17.7566 5.82569 17.0062L5.52362 16.8276L2.39094 17.6455L3.22707 14.6058L3.03019 14.2942C2.20166 12.9826 1.76413 11.4668 1.76488 9.91037C1.76661 5.36875 5.47969 1.67381 10.0451 1.67381C12.2559 1.67453 14.3341 2.53244 15.8967 4.08944C17.4594 5.64644 18.3195 7.71603 18.3187 9.91709C18.3168 14.4591 14.604 18.1544 10.0418 18.1544ZM14.5818 11.9851C14.3331 11.8611 13.1097 11.2622 12.8816 11.1794C12.6537 11.0968 12.4876 11.0556 12.3219 11.3034C12.1559 11.5512 11.6791 12.1091 11.5339 12.2743C11.3887 12.4396 11.2437 12.4603 10.9948 12.3363C10.746 12.2124 9.94428 11.9508 8.99382 11.1072C8.25419 10.4505 7.75486 9.63963 7.60964 9.39184C7.46466 9.14378 7.60838 9.02269 7.71878 8.88644C7.98814 8.55356 8.25786 8.20456 8.34079 8.03941C8.42382 7.87409 8.38224 7.72947 8.31994 7.60556C8.25786 7.48166 7.76026 6.26278 7.55296 5.76681C7.35084 5.28416 7.14586 5.34931 6.99303 5.34178C6.84806 5.33456 6.6821 5.33309 6.51615 5.33309C6.3503 5.33309 6.0807 5.39497 5.85257 5.64303C5.62454 5.89097 4.98184 6.48997 4.98184 7.70884C4.98184 8.92772 5.87342 10.1052 5.9978 10.2705C6.12214 10.4358 7.75241 12.937 10.2484 14.0095C10.842 14.2649 11.3054 14.4171 11.6669 14.5312C12.263 14.7197 12.8053 14.6931 13.2341 14.6293C13.7122 14.5582 14.7061 14.0303 14.9136 13.4518C15.1209 12.8734 15.1209 12.3777 15.0586 12.2743C14.9966 12.171 14.8306 12.1091 14.5818 11.9851Z" fill="currentColor"/>
</symbol></svg>